<svg width="195" height="213" viewBox="0 0 195 213" fill="none" xmlns="http://www.w3.org/2000/svg">
<path d="M162.591 126L171.755 148.126L192.102 135.494" stroke="white" stroke-width="5"/>
<path d="M90.95 81V114H84.6L71.85 93.2L68.65 87.35H68.6L68.8 92.7V114H63.9V81H70.2L82.9 101.75L86.15 107.7H86.2L86 102.3V81H90.95ZM114.416 80.5C117.616 80.5 120.383 81.1833 122.716 82.55C125.05 83.9167 126.85 85.8833 128.116 88.45C129.383 90.9833 130.016 94 130.016 97.5C130.016 101 129.383 104.033 128.116 106.6C126.85 109.133 125.05 111.083 122.716 112.45C120.383 113.817 117.616 114.5 114.416 114.5C111.216 114.5 108.45 113.817 106.116 112.45C103.816 111.083 102.033 109.133 100.766 106.6C99.4997 104.033 98.8664 101 98.8664 97.5C98.8664 94 99.4997 90.9833 100.766 88.45C102.033 85.8833 103.816 83.9167 106.116 82.55C108.45 81.1833 111.216 80.5 114.416 80.5ZM114.416 85.15C111.316 85.15 108.883 86.2333 107.116 88.4C105.35 90.5333 104.466 93.5667 104.466 97.5C104.466 101.433 105.35 104.483 107.116 106.65C108.883 108.783 111.316 109.85 114.416 109.85C117.55 109.85 120 108.783 121.766 106.65C123.533 104.483 124.416 101.433 124.416 97.5C124.416 93.5667 123.533 90.5333 121.766 88.4C120 86.2333 117.55 85.15 114.416 85.15Z" fill="#F2F2F2"/>
<path d="M40.5 170.631C17.7407 153.679 3 126.561 3 96C3 44.6375 44.6375 3 96 3C147.362 3 189 44.6375 189 96C189 116.802 182.17 133.008 170.631 148.5" stroke="white" stroke-width="5"/>
</svg>
