<svg width="190" height="210" viewBox="0 0 190 210" fill="none" xmlns="http://www.w3.org/2000/svg">
<path d="M47.496 38C60.1734 38 69.9133 42.6667 76.7158 52C83.5183 61.0222 86.9196 72.5333 86.9196 86.5333C86.9196 103.956 82.1269 120.289 72.5416 135.533C62.9562 150.778 49.5058 162.6 32.1904 171L9 150.933C21.3682 146.267 31.7265 139.578 40.0751 130.867C48.7328 121.844 54.4531 112.511 57.2359 102.867L55.3807 101.933C53.8347 102.867 51.9795 103.644 49.815 104.267C47.9598 104.889 45.1769 105.2 41.4665 105.2C34.9732 105.2 28.4799 102.556 21.9866 97.2667C15.4933 91.9778 12.2467 83.8889 12.2467 73C12.2467 62.7333 15.6479 54.3333 22.4504 47.8C29.5621 41.2667 37.9106 38 47.496 38ZM142.576 38C155.254 38 164.994 42.6667 171.796 52C178.599 61.0222 182 72.5333 182 86.5333C182 103.956 177.207 120.289 167.622 135.533C158.037 150.778 144.586 162.6 127.271 171L104.08 150.933C116.449 146.267 126.807 139.578 135.156 130.867C143.813 121.844 149.534 112.511 152.316 102.867L150.461 101.933C148.915 102.867 147.06 103.644 144.895 104.267C143.04 104.889 140.257 105.2 136.547 105.2C130.054 105.2 123.56 102.556 117.067 97.2667C110.574 91.9778 107.327 83.8889 107.327 73C107.327 62.7333 110.728 54.3333 117.531 47.8C124.643 41.2667 132.991 38 142.576 38Z" fill="white"/>
</svg>
